# xmcd
#
# Track frame offsets: 
#        150
#        12947
#        27197
#        51280
#        72337
#        97372
#        122022
#        148952
#        162757
#        190950
#        219642
#        233552
#        256387
#        275185
#        289982
#
# Disc length: 4160 seconds
#
# Revision: 0
# Processed by: cddbd v1.5.1PL2 Copyright (c) Steve Scherf et al.
# Submitted via: ExactAudioCopy v0.95a5
#
DISCID=ee103e0f
DTITLE=Various Artist - Monster Funk Party
DYEAR=1999
DGENRE=Funk
TTITLE0=James Brown - (Get Up I Feel Like Being A) Sex Machine
TTITLE1=Rick James - You And I
TTITLE2=Sly and The Family Stone - I Want To Take You Higher
TTITLE3=Rufus Featuring Chaka Khan - Tell Me Something Good
TTITLE4=Isley Brothers, The - The Heat Is On (Parts 1 and 2)
TTITLE5=Chic - Le Freak
TTITLE6=Brothers Johnson - Get The Funk Out Ma Face
TTITLE7=Earth, Wind and Fire - Mighty Mighty
TTITLE8=Afrika Bambaataa and Family (feat. George Clinton) - Clean Up Yo
TTITLE8=ur Act
TTITLE9=New Birth, The - I Can Understand It
TTITLE10=K.C. and The Sunshine Band - That's The Way (I Like It)
TTITLE11=B.T. Express - Express
TTITLE12=Stanley Clarke - We Supply
TTITLE13=Rose Royce - Put Your Money Where Your Mouth Is
TTITLE14=George Duke - Reach For It
EXTD=
EXTT0=
EXTT1=
EXTT2=
EXTT3=
EXTT4=
EXTT5=
EXTT6=
EXTT7=
EXTT8=
EXTT9=
EXTT10=
EXTT11=
EXTT12=
EXTT13=
EXTT14=
PLAYORDER=
